<svg xmlns="http://www.w3.org/2000/svg" version="1.1" xmlns:xlink="http://www.w3.org/1999/xlink" xmlns:svgjs="http://svgjs.dev/svgjs" width="2000" height="2250" viewBox="0 0 2000 2250"><g transform="matrix(1,0,0,1,0.000012850225743932242,0)"><svg viewBox="0 0 320 360" data-background-color="#d1abff" preserveAspectRatio="xMidYMid meet" height="2250" width="2000" xmlns="http://www.w3.org/2000/svg" xmlns:xlink="http://www.w3.org/1999/xlink"><g id="tight-bounds" transform="matrix(1,0,0,1,0.0000020560361235766322,0)"><svg viewBox="0 0 320 360" height="360" width="320"><g><svg></svg></g><g><svg viewBox="0 0 320 360" height="360" width="320"><g><path transform="translate(-15.58119,4.24857) scale(3.51065,3.51065)" d="M51.5 85.2c-0.4-0.5-0.8-0.2-0.8-0.5-2.4 0.6-6.9-1-8.8-0.8 0.4-0.6-0.6-0.5-0.6-0.9-0.4 0.6-0.8 0-1.4 0.2-0.6-1.5-3-0.4-3.3-2.3-1.4 0-1.9-0.8-3.3-1.6 0.1-0.1 0.2-0.1 0.3-0.2-0.7-0.1-0.7-0.5-1.3-0.5l0.2-0.4c-1.1-0.2-1.5-1.9-3.1-2.5-0.5-0.1-1.6-1.8-2.2-2.2-0.3-0.2-0.8-0.2-0.1-0.3-0.1-0.1-0.1-0.3 0-0.4-0.7-0.2-0.8-0.8-1.7-1.1-0.1-0.3 0.2-0.5 0-0.7-0.2-0.1-0.5 0.1-0.7 0-0.1 1.8 1.9 2 2.5 3.5-0.2-0.2-0.5-0.8-0.7-0.4-0.1 0.3 0.8 1.4 0.8 0.8-0.3 0.2-0.4-0.3-0.2-0.4 0.3 0.5 0.9 0.4 0.9 0.8-0.3 0.3-0.7-0.3-0.6 0.2 0.9 0.5 0.8 1 1.3 1.7-0.4-0.5-0.5 0.4-0.9 0-0.1-1.5-1.8-1.2-1.8-2.7-0.2-0.5-0.4-0.1-0.7-0.3 0.4-0.4-1.2-1.8-1.2-1.3-0.5-0.6-0.2-0.8-0.3-1.2-0.4-0.1-0.1 0.4-0.4 0.1 0.4-0.7-0.5-1.6-1.1-2.3l0.4-0.2c-0.7-0.4-0.8-1.2-1.3-2.1-0.6 0.9 1.2 2.9 0.9 3.3 0 0.1 0.7 0.9 0.9 1.3 0.8 1.4 1.4 3.1 2.5 3.9-0.2-0.1-0.1-0.7 0.2-0.4 0 0.3-0.2 0.6-0.2 0.9 0.6 0.6 1.1 1.1 1.7 1.7-1.3-0.8-2.6-1.6-3.5-2.8 0.5-0.1 1 0.8 1.4 0.7-1-0.8-0.7-1.1-1.1-2.1-0.4-0.3 0.1 0.4-0.3 0.5-1.3-1.2-2.3-1.9-2.9-3 0.1-0.1 0.2-0.2 0.2-0.4-0.1-0.1-0.1-0.1-0.2-0.2 0.6 0.6 0.8 1.1 1.5 1.2-0.3-0.3 0-0.4-0.4-0.7-0.2-0.4-0.5 0.2-0.7-0.1 0.2-0.3 0-0.7 0-1-0.2 0-0.4 0-0.5-0.3-0.2-0.1-0.3 0-0.4 0.2-0.1-0.1-0.1-0.3-0.2-0.4v-0.1c-0.1-0.1-0.2-0.3-0.3-0.4-0.8-2.1-1.3-4.9-2.4-6.7 0.3-1.2-0.2-3.6-0.5-4.2 0.3-0.5 0.1-2.8-0.1-3.2-0.5 0.2 0.1 1.3-0.4 1.6-0.5-2.2 0.3-4.7 0.1-6.7 0.2 0 0.4 0 0.4-0.1-0.3-0.3 0.2-0.9 0.1-1.6 0.4-0.9-0.9 1.3-0.9 2.2-0.1 0.2-0.5 0-0.4 0.5 0 0.7 0.2 2.1-0.2 3.1-0.2 0-0.2-0.2-0.4-0.1-0.1 0.5-0.2 1.1-0.3 1.6-0.1-0.2-0.2-0.5-0.2-0.6-0.5-2.5 0-5.4-0.2-7.5 0.4 0 0.4-0.6 0.7-0.8-0.1 0.8-0.3 1.8 0.2 2 0.4-3.9 1.2-8.2 3-12.4 1.3-3.1 3.2-6.2 5.5-8.7 0.2 0.3-0.1 1 0 1.3 2-2.1 3.3-4.6 5.5-6 0.1 0.5-0.9 0.9-0.9 1.3 0.9-0.9 1.2-0.6 2.2-0.9 0.3-0.4-0.4 0-0.5-0.4 0.6-0.4 1-0.9 1.4-1.2 0 0.1-0.1 0.1-0.1 0.2 1.1-0.3 1.2-0.9 2-1.1-0.1-0.1-0.3-0.2-0.6-0.1 0.2-0.1 0.5-0.3 0.8-0.4-0.1 0-0.1 0.1-0.2 0.1 0.6-0.3 0.1 0.1 0.1 0.3 0.1 0 0.2-0.1 0.2-0.1-0.6 0.4-1 0.6-1.2 1.3 0.3-0.2 0.4 0 0.8-0.3 0.4-0.2-0.1-0.5 0.2-0.7 0.3 0.2 0.7 0.1 1 0.1 0-0.2 0.1-0.4 0.3-0.5 0.1-0.2 0-0.3-0.1-0.3 0.1-0.1 0.2-0.1 0.4-0.2 0 0 0.1 0 0.1 0.1 1.7-0.8 3.6-1.5 5.4-2.1 1.1-0.1 2.5-0.1 3.1-0.8-0.2 0-0.4 0.1-0.5 0 0.1 0 0.3-0.1 0.4-0.1 0.2 0.2 0.5 0 0.2 0.4 0.1 0 0.1 0 0.2-0.1 0 0.1 0 0.1 0.1 0.2 0.1 0 0.2-0.1 0.3-0.3 0.1 0 0.2 0 0.3-0.1l-0.1 0.1c0.8-0.2 1.5-0.1 2.6-0.3 0-0.1 0-0.2 0-0.3 0.2 0 0.3-0.1 0.5-0.1v0.1c0.4-0.2 0.8 0.2 0.8 0 0.1 0 0.1 0 0.2 0 0 0.2-0.1 0.3-0.1 0.4 0.5 0 0.8 0 1-0.3-0.1-0.1-0.2-0.1-0.3-0.1 0.2 0 0.4-0.1 0.6-0.2 0.3 0.1 0.4 0.2 0.4 0.6 0.5-0.9 2.1 0.2 2.8 0 0.3 0 0.2-0.4 0.4-0.6 0.1 0 0.2 0 0.3 0 0.5 0.4 1.2 0.8 2.1 0.9-0.8-0.2 0.1-0.3 0.2-0.4-0.2 0-0.2-0.1-0.2-0.2 0.3 0 0.6 0.1 0.9 0.1 0 0.2 0.1 0.3 0.3 0.3 0.2 0 0.2-0.1 0.2-0.3 0.3 0 0.5 0 0.8 0.1-0.1 0.4 0.5 0.5 0.7 0.8-0.8-0.2-1.7-0.5-2 0 3.2 0.7 6.7 1.7 10.1 3.4 0 0 0 0 0 0.1h0.1c0.6 0.3 1.2 0.6 1.8 0.9 0.4 0.2 0.7 0.4 1.1 0.7 0 0.1 0 0.2 0.2 0.2h0.1c0.4 0.3 0.8 0.5 1.2 0.8 0.4 0.6 0.8 1.4 1.5 1.2 1.5 2.3 3.1 3.2 4.4 5.6 0.1-0.4 0.4 0.9 0.9 1-0.8-0.1 0.5 0.5-0.3 0.4 0.7 0.7 0.9 1 1 1.8-0.2-0.4-0.3-0.5-0.4-0.1-0.1 0.6 0.7-0.1 1 0.5-0.6 0-0.4 0.4-0.3 0.9 0.3-0.3 0.2-0.6 0.5-0.5 0.4 0.4-0.2 0.5-0.1 0.8 0.3-0.4 0.4-0.2 0.8 0-0.5 0.1 0.3 0.8-0.3 0.5 0.4 0.5 0.5 0.8 0.3 1.3-0.4-0.6-0.1-1-0.7-0.9 1.2 1 0.6 3.3 2 3.5-0.9 0.2 0 0.6-0.5 0.7 0.6 0.2 0.3 1 1 1.2-0.1 0.5-0.3 0.8-0.4 1.3 0.3 0.4 0.4 1.2 0.9 1.3-0.3 0.3-0.1 1.1-0.4 1.4 0.4-0.2 0.6-0.2 0.9 0.2-0.5 0.4-0.1 0.8-0.4 0.9 0.9 2.3-0.2 7 0.3 8.8-0.6-0.3-0.4 0.7-0.8 0.7 0.7 0.3 0.1 0.8 0.4 1.3-1.4 0.8 0 3-1.9 3.5 0.2 1.4-0.6 2-1.2 3.5-0.1-0.1-0.1-0.2-0.2-0.3-0.1 0.7-0.5 0.8-0.3 1.4l-0.4-0.2c0 1.1-1.7 1.7-2.1 3.4-0.1 0.5-1.6 1.8-2 2.5-0.2 0.3-0.1 0.8-0.3 0.1-0.1 0.1-0.3 0.1-0.4 0.1-0.1 0.7-0.7 0.9-0.9 1.8-0.2 0.1-0.5-0.2-0.7 0.1 0 0.2 0.2 0.5 0.1 0.7 1.8-0.1 1.8-2.2 3.2-2.9-0.1 0.3-0.7 0.6-0.3 0.8 0.3 0 1.2-1 0.7-0.9 0.3 0.2-0.3 0.4-0.4 0.3 0.5-0.4 0.3-0.9 0.7-1 0.3 0.2-0.3 0.7 0.3 0.6 0.4-0.9 0.9-1 1.5-1.5-0.4 0.4 0.5 0.5 0.1 0.9-1.5 0.3-1 2-2.5 2.2-0.4 0.3-0.1 0.4-0.2 0.7-0.5-0.3-1.6 1.4-1.2 1.3-0.5 0.5-0.8 0.3-1.2 0.4-0.1 0.4 0.4 0.1 0.2 0.4-0.7-0.3-1.6 0.7-2.2 1.4l-0.3-0.3c-0.3 0.8-1.1 0.9-2 1.5 1 0.5 2.7-1.6 3.2-1.3 0.1 0 0.9-0.8 1.2-1.1 1.3-1 2.9-1.8 3.5-2.9-0.1 0.2-0.7 0.2-0.4-0.1 0.3-0.1 0.6 0.1 0.9 0.1 1.6-2.2 3.6-4 5.1-6.6 0.1-0.1 0.2-0.3 0.3-0.5-0.2 0.6-0.5 1.1-0.7 1.7-1.6 1.1-2.2 4.3-4.1 4.8 0.1 1.1-0.9 1.4-1.4 2.7-0.3 0.4-0.5-0.3-0.8 0.2 0.3 1.4-2.5 1.3-2.4 2.6-0.2 0.1-0.5 0.2-0.7 0.4h-0.1c-0.1 0.1-0.1 0.1-0.2 0.2-0.5 0.3-0.9 0.6-1.3 0.9-1.4 0.8-3.3 1.4-4.8 2.2v-0.1c-0.4 0.2-0.9 0.1-0.8 0.5-0.3 0.2-0.6 0.4-0.9 0.6-0.1 0-0.1 0-0.2 0 0 0-0.1-0.1-0.2-0.1-0.2 0-0.2 0-0.3 0.1-1.3 0.1-3 0.7-3.5 1.1-0.5-0.3-2.8 0.2-3.2 0.4 0.2 0.3 0.8 0 1.3 0-0.3 0.1-0.6 0.2-0.7 0.4-0.1 0-0.1 0-0.2 0-0.1-0.3-0.4 0-0.5-0.1h0.1c-0.1-0.4-0.4-0.6-0.9-0.5 0 0.2 0 0.3-0.1 0.5 0.2 0 0.8-0.3 0.8 0-0.1 0-0.1 0.1 0 0.1-0.2 0.2-0.5 0.2-0.7 0.3-0.4 0-0.9 0-1.3 0-0.1-0.1-0.2-0.1-0.4-0.2-0.1 0.1-0.3 0.1-0.4 0.2-0.6 0-1.3 0.1-1.8 0.2 0-0.2 0-0.4-0.2-0.4-0.3 0.4-0.9-0.1-1.6 0.1-0.7-0.2 0.4 0.3 1.4 0.5-0.1 0.1-0.2 0.2-0.5 0.3M37.5 86.6c-1.4-1.3-4.3-1.9-4.8-2.9-0.8-0.1-2-1.6-3-1.8 0.5 0 0.1-0.3 0-0.5-0.2 0.2-0.4 0.3-0.6 0.3 0-0.8-0.8-1.3-1.5-1.8 0.5 0.3 0.9 0.5 1.5 0.6 0-0.2 0-0.4 0.2-0.4 0.7 0.7 1.5 1.4 2.4 2.1 1.2 1.1 7.4 3.9 8.5 4.4 0 0-0.2 0.4-0.1 0.4 0.5 0.3 0.9-0.3 1 0.4-1.6 0.2-2.2-0.9-3.6-0.8M83.6 63.4v0.1 0c-0.1 0 0-0.1 0-0.1M43.2 17.1c-0.1 0.1-0.2 0.1-0.2 0.1 0-0.1 0.1-0.1 0.2-0.1M41.3 17.6c0 0.1 0 0.1 0 0 0 0.1 0 0.1 0 0 0 0.1 0 0 0 0M34.7 19.7v0c0.1-0.1 0.1-0.1 0.2-0.1-0.1 0-0.2 0.1-0.2 0.1M50.7 16.4c-0.2 0-0.3 0-0.4-0.1 0.1 0 0.2 0 0.3 0h0.1c0 0 0 0 0 0.1M52.5 16.6c-0.1-0.1-0.4-0.2-0.7-0.2 0-0.1 0.1-0.2 0.1-0.2 0.1 0 0.2 0 0.3 0 0 0 0.1 0 0.1 0.1 0 0 0 0 0-0.1 0.1 0 0.1 0 0.2 0 0.1 0.2 0.2 0.3 0 0.4M55.8 16.9c-0.5 0.1-0.8-0.1-1.3-0.4 0.3 0 0.7 0.1 1 0.2 0.1 0 0.2 0.1 0.3 0.2M91.4 31.1c-0.2 0.1-0.3 0.1-0.5-0.3-1.6-3.4-4.5-8.3-8.7-12.4-4.1-4.2-9.6-7.6-14.6-9.4 0.3 0.1 0.7 0.3 0.5 0.5-4.4-1.7-8.6-2.7-12.6-3.1-10.8-1.7-22.1 0.6-30.8 6.2 0.1 0.2 0.1 0.3-0.2 0.5-3.2 2-7.7 5.5-11.3 10.1-3.6 4.6-6.4 10.4-7.6 15.6 0.1-0.3 0.2-0.8 0.4-0.6-2.6 10.3-1.9 19.1 1.7 26.7 0.2-0.2-0.5-1.2 0.1-1.1 0.4 1.1 0.9 2.3 1.5 3.4 0.7 1.6 1.5 3.7 2.6 4.2-2.8-5.5-4.7-11.8-4.9-17.4 0.4 0.8 0.3 2.5 0.9 3.2 0.2-3.8-0.7-8.9 0.6-12.5-0.3 1.9-0.5 4.5-0.3 7.1 0 1.9 0.9 7.2 1.5 7.7-0.1-0.1-0.1-0.6 0-0.6 0.3 0.6-0.4 0.9 0.1 1 0-0.2 0.1-0.2 0.2-0.2 1 2.2 2.3 5.6 3.3 7.3 1.2 2.2 2.8 4.2 4.6 6 0 0.1 0.1 0.1 0.1 0.2 0.2 0.5 0.9 1.1 1.1 1.5 0.1 0.2-0.1 0.5 0 0.7 1.5 2.8 3.7 5.6 6.4 7.8 1.7 2 4.4 4.1 7.7 5.9 3.2 1.7 6.9 3.1 10.3 3.9 2.4 0.6 5.3 0.7 7.1 1.1 2.4 0.5 6.6-0.2 8.7-0.6 12.6-1.9 25.1-10.5 31.4-22.9 6.5-12.5 6.3-27.8 0.7-39.5" fill="#712689" fill-rule="nonzero" stroke="none" stroke-width="1" stroke-linecap="butt" stroke-linejoin="miter" stroke-miterlimit="10" stroke-dasharray="" stroke-dashoffset="0" font-family="none" font-weight="none" font-size="none" text-anchor="none" style="mix-blend-mode: normal" data-fill-palette-color="tertiary"></path></g><g transform="matrix(1,0,0,1,80,158.11891939292633)"><svg viewBox="0 0 160 43.76216121414731" height="43.76216121414731" width="160"><g><svg viewBox="0 0 294.67076441828203 80.59643435980551" height="43.76216121414731" width="160"><g><rect width="6.056891355072934" height="80.59643435980551" x="112.75813653160453" y="0" fill="#712689" opacity="1" stroke-width="0" stroke="transparent" fill-opacity="1" class="rect-qz-0" data-fill-palette-color="primary" rx="1%" id="qz-0" data-palette-color="#712689"></rect></g><g transform="matrix(1,0,0,1,134.670764418282,6.716369529983794)"><svg viewBox="0 0 160 67.16369529983793" height="67.16369529983793" width="160"><g id="textblocktransform"><svg viewBox="0 0 160 67.16369529983793" height="67.16369529983793" width="160" id="textblock"><g><svg viewBox="0 0 160 67.16369529983793" height="67.16369529983793" width="160"><g transform="matrix(1,0,0,1,0,0)"><svg width="160" viewBox="0.2 -38.75 123.39 51.8" height="67.16369529983793" data-palette-color="#712689"><path d="M30.9-33.4Q32.75-33.05 33.33-32.83 33.9-32.6 34.1-32.15L34.1-32.15Q33.05-28.1 31.35-20.68 29.65-13.25 29.05-10.7L29.05-10.7Q27.95-5.6 27-1.65L27-1.65Q26.3 1.1 24.8 1.1L24.8 1.1Q20.85 1.1 20.3-0.5L20.3-0.5 20.2-0.4 12.05-22.2 8.95-9.6Q8.05-6.15 7-1.8L7-1.8Q6.65-0.35 5.93 0.15 5.2 0.65 3.2 0.65L3.2 0.65Q1.65 0.65 0.93 0.13 0.2-0.4 0.2-1.65L0.2-1.65Q0.2-2.2 0.35-2.7L0.35-2.7 7.2-29.75Q7.75-31.95 8.38-32.68 9-33.4 10.65-33.4L10.65-33.4Q12-33.4 13.05-33.1 14.1-32.8 14.15-32.2L14.15-32.2 14.15-32.05 22.2-9.75Q25.45-25.45 26.35-28.2L26.35-28.2Q27.05-30.3 28.25-31.7 29.45-33.1 30.9-33.4L30.9-33.4ZM14.1-32.25L14.1-32.25ZM20.2-1.05L20.2-1.05ZM41.4-29.7Q41.4-31.25 42.37-32.45 43.35-33.65 45.1-33.65L45.1-33.65Q46.95-33.65 48.32-32.5 49.7-31.35 49.7-29.9L49.7-29.9Q49.7-28.45 48.3-27.4 46.9-26.35 45.05-26.35L45.05-26.35Q43.25-26.35 42.32-27.28 41.4-28.2 41.4-29.7L41.4-29.7ZM46.65-20.85Q44-10.05 42.6-4.6L42.6-4.6Q42.4-3.8 42.4-2.85L42.4-2.85 42.45-1.45Q42.45-0.6 41.92-0.25 41.4 0.1 39.7 0.15L39.7 0.15Q38.05 0.15 37.2-0.2 36.35-0.55 36.35-1.7L36.35-1.7Q36.35-2.25 37.62-7.55 38.9-12.85 41.1-21.35L41.1-21.35 39.95-22.85Q39.8-23 39.8-23.2L39.8-23.2Q39.8-23.7 40.9-24.03 42-24.35 43.95-24.35L43.95-24.35Q45.65-24.35 46.12-23.38 46.6-22.4 46.65-20.85L46.65-20.85ZM65.95-19.35Q65.35-19.65 64.45-19.65L64.45-19.65Q62.2-19.65 59.95-18.75 57.7-17.85 57.7-16.45L57.7-16.45Q57.7-15.45 58.6-14.85 59.5-14.25 61.45-13.5L61.45-13.5Q63.55-12.65 64.85-11.9 66.15-11.15 67.12-9.73 68.1-8.3 68.1-6.1L68.1-6.1Q68.1-2.5 65.12-0.58 62.15 1.35 57.15 1.35L57.15 1.35Q54.7 1.35 52.6 0.6 50.5-0.15 49.27-1.33 48.05-2.5 47.95-3.65L47.95-3.65Q47.95-4.85 49-5.63 50.05-6.4 51.95-6.65L51.95-6.65Q52-5.65 53-4.78 54-3.9 55.37-3.38 56.75-2.85 57.75-2.85L57.75-2.85Q59.45-2.85 60.85-3.78 62.25-4.7 62.25-5.95L62.25-5.95Q62.25-8.25 57.8-9.6L57.8-9.6Q54.95-10.45 53.42-12.3 51.9-14.15 51.9-16.2L51.9-16.2Q51.9-20.25 55.57-22.03 59.25-23.8 64.95-23.8L64.95-23.8Q68.15-23.8 69.9-23.05 71.65-22.3 71.65-20.45L71.65-20.45Q71.65-19.2 70.72-18.25 69.8-17.3 68.1-17.3L68.1-17.3Q66.6-17.3 66.17-17.53 65.75-17.75 65.7-18.3L65.7-18.3Q65.7-18.8 65.95-19.35L65.95-19.35ZM80.09-16.5Q81.24-18.75 83.27-20.35 85.29-21.95 87.39-22.8 89.49-23.65 90.84-23.65L90.84-23.65Q93.44-23.65 94.59-22.68 95.74-21.7 95.74-19.6L95.74-19.6Q92.79-11.9 91.84-3L91.84-3 92.54-0.55Q91.94 0.6 90.94 1.28 89.94 1.95 87.89 1.95L87.89 1.95Q86.69 1.95 86.14 1.15 85.59 0.35 85.59-0.85L85.59-0.85Q85.59-4.2 86.57-8.22 87.54-12.25 88.84-16.45L88.84-16.45Q89.34-18.05 89.34-18.1L89.34-18.1Q89.34-18.8 88.54-18.8L88.54-18.8Q87.49-18.8 85.49-17.25 83.49-15.7 81.34-12.03 79.19-8.35 77.74-2.4L77.74-2.4Q77.69-2.15 77.49-1.35 77.29-0.55 76.59-0.2 75.89 0.15 74.44 0.15L74.44 0.15Q72.69 0.15 71.74-0.23 70.79-0.6 70.79-1.7L70.79-1.7Q77.34-27.45 78.89-33.9L78.89-33.9Q78.84-34.55 78.82-35.63 78.79-36.7 78.79-37.3L78.79-37.3Q78.94-38 79.87-38.38 80.79-38.75 81.74-38.75L81.74-38.75Q83.34-38.75 84.44-37.9 85.54-37.05 85.64-35.75L85.64-35.75 80.09-16.5ZM112.64-2.1Q110.94-0.5 109.34 0.28 107.74 1.05 105.74 1.05L105.74 1.05Q102.44 1.05 100.67-1 98.89-3.05 98.89-6.45L98.89-6.45Q98.89-7.45 99.19-8.65L99.19-8.65 102.54-21.7Q102.84-22.8 103.62-23.33 104.39-23.85 106.14-23.85L106.14-23.85Q108.74-23.85 108.74-22.4L108.74-22.4Q108.74-21.8 108.39-20.5L108.39-20.5 105.04-7.1Q104.89-6.5 104.89-5.9L104.89-5.9Q104.89-4.85 105.44-4.2 105.99-3.55 107.19-3.55L107.19-3.55Q108.74-3.55 110.54-4.45 112.34-5.35 113.59-6.65L113.59-6.65 114.54-10.6Q115.49-14.6 116.74-19.25L116.74-19.25Q117.29-21.25 118.17-22.53 119.04-23.8 120.94-23.8L120.94-23.8Q123.59-23.8 123.59-22.2L123.59-22.2Q123.59-21.95 123.47-21.58 123.34-21.2 123.29-20.95L123.29-20.95 121.64-14.1Q119.04-3.2 118.24-0.15L118.24-0.15Q116.94 4.85 115.29 7.7 113.64 10.55 111.17 11.8 108.69 13.05 104.84 13.05L104.84 13.05Q102.39 13.05 100.82 12.35 99.24 11.65 98.52 10.65 97.79 9.65 97.79 8.8L97.79 8.8Q97.79 6.35 100.49 6.35L100.49 6.35Q101.24 6.35 101.72 6.65 102.19 6.95 102.69 7.5L102.69 7.5Q103.44 8.2 104.07 8.55 104.69 8.9 105.79 8.9L105.79 8.9Q106.64 8.9 107.69 8.2 108.74 7.5 109.74 6 110.74 4.5 111.39 2.25L111.39 2.25 112.64-2.1Z" opacity="1" transform="matrix(1,0,0,1,0,0)" fill="#712689" class="wordmark-text-0" data-fill-palette-color="primary" id="text-0"></path></svg></g></svg></g></svg></g></svg></g><g transform="matrix(1,0,0,1,0,1.3305050930588251)"><svg viewBox="0 0 96.9024 77.93542417368786" height="77.93542417368786" width="96.9024"><g><svg xmlns="http://www.w3.org/2000/svg" xmlns:xlink="http://www.w3.org/1999/xlink" version="1.1" x="0" y="0" viewBox="0 9.786 100.00034525290006 80.42699999999999" enable-background="new 0 0 100 100" xml:space="preserve" width="96.9024" height="77.93542417368786" class="icon-icon-0" data-fill-palette-color="accent" id="icon-0"><path d="M49.942 52.994c13.552-0.488 27.103-0.977 40.653-1.465-2.527-4.177-3.159-7.831-7.989-8.461-7.229-0.94-14.458-1.883-21.688-2.826-14.023-1.827-28.05-3.654-42.075-5.48C20.101 36.792 39.724 53.361 49.942 52.994z" fill="#712689" data-fill-palette-color="accent"></path><path d="M0 9.786c4.391 7.257 26.615 23.072 32.953 23.886 17.33 2.231 34.657 4.46 51.986 6.688-3.393-5.607-4.18-9.35-10.312-10.959-8.904-2.341-17.812-4.683-26.717-7.023C31.94 18.182 15.97 13.984 0 9.786z" fill="#712689" data-fill-palette-color="accent"></path><path d="M63.108 66.207c10.413-2.219 20.826-4.439 31.241-6.66-2.028-3.346-2.034-5.359-5.827-5.189-6.158 0.273-12.314 0.549-18.471 0.822-11.343 0.506-22.686 1.014-34.028 1.518C37.298 58.064 54.94 67.947 63.108 66.207z" fill="#712689" data-fill-palette-color="accent"></path><path d="M87.682 90.213c5.725-3.719 7.262-7.721 10.519-13.807 3.651-6.824 1.257-7.844-2.821-14.596-0.417-0.688-5.842 0.232-6.453 0.904-0.745 0.818-0.248 5.455-0.294 6.496C88.315 76.211 87.998 83.213 87.682 90.213z" fill="#712689" data-fill-palette-color="accent"></path><path d="M86.35 63.447c-3.795 0.809-8.604 0.191-9.572 4.229-1.373 5.736-2.746 11.475-4.12 17.211C81.904 82.678 86.028 71.582 86.35 63.447z" fill="#712689" data-fill-palette-color="accent"></path><path d="M74.666 66.121c-9.148 1.953-8.956 4.611-12.879 13.18C68.007 78.711 73.811 71.941 74.666 66.121z" fill="#712689" data-fill-palette-color="accent"></path></svg></g></svg></g></svg></g></svg></g></svg></g><defs></defs></svg><rect width="320" height="360" fill="none" stroke="none" visibility="hidden"></rect></g></svg></g></svg>